<svg id="collaboration" xmlns="http://www.w3.org/2000/svg" width="24.538" height="24.538" viewBox="0 0 24.538 24.538">
  <g id="Group_13" data-name="Group 13" transform="translate(9.815)">
    <g id="Group_12" data-name="Group 12">
      <path id="Path_34" data-name="Path 34" d="M194.454,0a2.454,2.454,0,1,0,2.454,2.454A2.454,2.454,0,0,0,194.454,0Zm0,4.09a1.636,1.636,0,1,1,1.636-1.636A1.636,1.636,0,0,1,194.454,4.09Z" transform="translate(-192)" fill="#fff"/>
    </g>
  </g>
  <g id="Group_15" data-name="Group 15" transform="translate(8.588 5.317)">
    <g id="Group_14" data-name="Group 14">
      <path id="Path_35" data-name="Path 35" d="M173.317,104h-.1l-.086.043a3.26,3.26,0,0,1-2.906,0l-.086-.043h-.1A2.047,2.047,0,0,0,168,106.045V108.5a1.227,1.227,0,0,0,1.227,1.227h4.908a1.227,1.227,0,0,0,1.227-1.227v-2.454A2.047,2.047,0,0,0,173.317,104Zm1.227,4.5a.409.409,0,0,1-.409.409h-4.908a.409.409,0,0,1-.409-.409v-2.454a1.227,1.227,0,0,1,1.14-1.224,4.093,4.093,0,0,0,3.446,0,1.227,1.227,0,0,1,1.14,1.224Z" transform="translate(-168 -104)" fill="#fff"/>
    </g>
  </g>
  <g id="Group_17" data-name="Group 17" transform="translate(18.404 13.496)">
    <g id="Group_16" data-name="Group 16">
      <path id="Path_36" data-name="Path 36" d="M362.454,264a2.454,2.454,0,1,0,2.454,2.454A2.454,2.454,0,0,0,362.454,264Zm0,4.09a1.636,1.636,0,1,1,1.636-1.636A1.636,1.636,0,0,1,362.454,268.09Z" transform="translate(-360 -264)" fill="#fff"/>
    </g>
  </g>
  <g id="Group_19" data-name="Group 19" transform="translate(17.177 18.813)">
    <g id="Group_18" data-name="Group 18">
      <path id="Path_37" data-name="Path 37" d="M341.317,368h-.1l-.086.041a3.26,3.26,0,0,1-2.906,0l-.086-.041h-.1A2.047,2.047,0,0,0,336,370.045V372.5a1.227,1.227,0,0,0,1.227,1.227h4.908a1.227,1.227,0,0,0,1.227-1.227v-2.454A2.047,2.047,0,0,0,341.317,368Zm1.227,4.5a.409.409,0,0,1-.409.409h-4.908a.409.409,0,0,1-.409-.409v-2.454a1.227,1.227,0,0,1,1.14-1.224,4.093,4.093,0,0,0,3.446,0,1.227,1.227,0,0,1,1.14,1.224Z" transform="translate(-336 -368)" fill="#fff"/>
    </g>
  </g>
  <g id="Group_21" data-name="Group 21" transform="translate(1.227 13.496)">
    <g id="Group_20" data-name="Group 20">
      <path id="Path_38" data-name="Path 38" d="M26.454,264a2.454,2.454,0,1,0,2.454,2.454A2.454,2.454,0,0,0,26.454,264Zm0,4.09a1.636,1.636,0,1,1,1.636-1.636A1.636,1.636,0,0,1,26.454,268.09Z" transform="translate(-24 -264)" fill="#fff"/>
    </g>
  </g>
  <g id="Group_23" data-name="Group 23" transform="translate(0 18.813)">
    <g id="Group_22" data-name="Group 22">
      <path id="Path_39" data-name="Path 39" d="M5.317,368h-.1l-.086.041a3.26,3.26,0,0,1-2.906,0L2.141,368h-.1A2.047,2.047,0,0,0,0,370.045V372.5a1.227,1.227,0,0,0,1.227,1.227H6.135A1.227,1.227,0,0,0,7.361,372.5v-2.454A2.047,2.047,0,0,0,5.317,368Zm1.227,4.5a.409.409,0,0,1-.409.409H1.227a.409.409,0,0,1-.409-.409v-2.454a1.227,1.227,0,0,1,1.14-1.224,4.093,4.093,0,0,0,3.446,0,1.227,1.227,0,0,1,1.14,1.224Z" transform="translate(0 -368)" fill="#fff"/>
    </g>
  </g>
  <g id="Group_25" data-name="Group 25" transform="translate(8.179 20.039)">
    <g id="Group_24" data-name="Group 24">
      <path id="Path_40" data-name="Path 40" d="M168.145,392.725h0a.409.409,0,0,0-.537-.216h0a9.072,9.072,0,0,1-5.833.4l.383-.112a.409.409,0,0,0-.23-.785l-1.636.48c-.006,0-.011.007-.016.009a.406.406,0,0,0-.106.059.355.355,0,0,0-.041.026.4.4,0,0,0-.1.139.41.41,0,0,0-.031.169,1.264,1.264,0,0,0,.041.164c0,.006,0,.012,0,.018l.818,1.565a.409.409,0,0,0,.726-.379l-.333-.636a9.844,9.844,0,0,0,6.674-.363A.409.409,0,0,0,168.145,392.725Z" transform="translate(-159.998 -391.995)" fill="#fff"/>
    </g>
  </g>
  <g id="Group_27" data-name="Group 27" transform="translate(15.541 3.201)">
    <g id="Group_26" data-name="Group 26">
      <path id="Path_41" data-name="Path 41" d="M311.648,70.173a.409.409,0,0,0-.578,0l-.579.579a9.8,9.8,0,0,0-5.924-8.1.409.409,0,0,0-.321.753,8.984,8.984,0,0,1,5.409,7.228l-.461-.461a.409.409,0,0,0-.578.578l1.227,1.227a.409.409,0,0,0,.578,0h0l1.227-1.227A.409.409,0,0,0,311.648,70.173Z" transform="translate(-303.998 -62.622)" fill="#fff"/>
    </g>
  </g>
  <g id="Group_29" data-name="Group 29" transform="translate(2.454 2.461)">
    <g id="Group_28" data-name="Group 28">
      <path id="Path_42" data-name="Path 42" d="M54.532,49.215a.38.38,0,0,0-.011-.071s0-.006-.006-.01,0-.007,0-.01a.393.393,0,0,0-.038-.056A.413.413,0,0,0,54.43,49a.384.384,0,0,0-.08-.054.36.36,0,0,0-.046-.033l-1.636-.747a.409.409,0,0,0-.339.743l.847.387A9.8,9.8,0,0,0,48,57.943a.409.409,0,1,0,.818,0A8.983,8.983,0,0,1,53.244,50.2l-.3.618a.409.409,0,0,0,.191.545.4.4,0,0,0,.177.041.409.409,0,0,0,.368-.232l.818-1.707a.019.019,0,0,1,0-.013.394.394,0,0,0,.022-.087.423.423,0,0,0,.016-.067A.408.408,0,0,0,54.532,49.215Z" transform="translate(-48 -48.134)" fill="#fff"/>
    </g>
  </g>
</svg>
