<svg id="mail" xmlns="http://www.w3.org/2000/svg" width="22.66" height="15.107" viewBox="0 0 22.66 15.107">
  <g id="Group_31" data-name="Group 31" transform="translate(0 0)">
    <path id="Path_43" data-name="Path 43" d="M21.5,85.333H1.162A1.165,1.165,0,0,0,0,86.5V99.278a1.166,1.166,0,0,0,1.162,1.162H21.5a1.166,1.166,0,0,0,1.162-1.162V86.5A1.166,1.166,0,0,0,21.5,85.333Zm-.436.871L12,93a1.215,1.215,0,0,1-1.337,0L1.6,86.2Zm-4.841,7.247,4.939,6.1c0,.006.011.011.016.016H1.484c.005-.006.011-.01.016-.016l4.939-6.1a.436.436,0,0,0-.677-.549L.872,98.944V86.749L10.139,93.7a2.08,2.08,0,0,0,2.382,0l9.267-6.951V98.944L16.9,92.9a.436.436,0,0,0-.677.549Z" transform="translate(0 -85.333)" fill="#8705be"/>
  </g>
</svg>
