<svg xmlns="http://www.w3.org/2000/svg" width="21.385" height="17.406" viewBox="0 0 21.385 17.406">
  <g id="megaphone_1_" data-name="megaphone (1)" transform="translate(0 -45.195)">
    <g id="Group_11" data-name="Group 11" transform="translate(0 45.195)">
      <path id="Path_33" data-name="Path 33" d="M18.487,49.81V45.671a.483.483,0,0,0-.23-.391.575.575,0,0,0-.437-.069L8.692,48.844H4.185a2.346,2.346,0,0,0-2.024,1.242l-.414.161A2.6,2.6,0,0,0,0,52.707a2.552,2.552,0,0,0,1.748,2.437l.276.115a2.368,2.368,0,0,0,1.15,1.265l1.219,4.415A2.253,2.253,0,0,0,8.37,61.7a2.368,2.368,0,0,0,.368-2L7.91,56.662h.782l9.129,3.7.161.046a.552.552,0,0,0,.276-.069.437.437,0,0,0,.23-.368V55.6a2.9,2.9,0,0,0,0-5.795ZM1.932,54.225a1.675,1.675,0,0,1,0-3.035Zm5.7,6.9a1.311,1.311,0,0,1-1.081.529A1.38,1.38,0,0,1,5.266,60.64L4.185,56.662H6.967l.874,3.265A1.38,1.38,0,0,1,7.634,61.123Zm.736-5.381H4.185a1.265,1.265,0,0,1-1.332-1.194q0-.047,0-.094V51.189a1.38,1.38,0,0,1,1.332-1.426H8.37Zm9.2,3.541L9.29,55.972v-6.3l8.278-3.311Zm.92-4.6V50.73a1.978,1.978,0,0,1,0,3.955Z" transform="translate(0 -45.195)" fill="#fff"/>
    </g>
  </g>
</svg>
