<svg xmlns="http://www.w3.org/2000/svg" width="116.573" height="45.573" viewBox="0 0 116.573 45.573">
  <g id="Group_36" data-name="Group 36" transform="translate(-125 -548)">
    <g id="google" transform="translate(196 548)">
      <path id="Path_58" data-name="Path 58" d="M266.033,201.34a22.729,22.729,0,0,0-.4-4.256A1.336,1.336,0,0,0,264.321,196H243.335A1.334,1.334,0,0,0,242,197.334v8.011a1.334,1.334,0,0,0,1.335,1.335H254.1a11.956,11.956,0,0,1-2.681,3.528l7.546,7.546A22.615,22.615,0,0,0,266.033,201.34Z" transform="translate(-220.46 -178.553)" fill="#8705be"/>
      <path id="Path_59" data-name="Path 59" d="M63.474,10.681a11.9,11.9,0,0,1,7.205,2.407,1.333,1.333,0,0,0,1.746-.124l5.7-5.7A1.336,1.336,0,0,0,78.037,5.3a22.673,22.673,0,0,0-33.374,4.711L52.5,17.847A12.02,12.02,0,0,1,63.474,10.681Z" transform="translate(-40.688)" fill="#8705be"/>
      <path id="Path_60" data-name="Path 60" d="M63.474,329.347a22.548,22.548,0,0,0,13.583-4.556L69.369,317.1A11.961,11.961,0,0,1,52.5,311.5l-7.837,7.837A22.693,22.693,0,0,0,63.474,329.347Z" transform="translate(-40.688 -283.773)" fill="#8705be"/>
      <path id="Path_61" data-name="Path 61" d="M10.876,152.5a9.609,9.609,0,0,1,0-3.846L2.5,140.271a22.491,22.491,0,0,0,0,20.6Z" transform="translate(0 -127.785)" fill="#8705be"/>
    </g>
    <path id="facebook_2_" data-name="facebook (2)" d="M45.573,22.787A22.787,22.787,0,1,0,22.787,45.573c.134,0,.267,0,.4-.009V27.834h-4.9V22.128h4.9v-4.2c0-4.869,2.973-7.521,7.317-7.521a39.768,39.768,0,0,1,4.388.223v5.091H31.9c-2.359,0-2.822,1.122-2.822,2.768v3.632h5.652l-.739,5.706H29.08V44.692A22.794,22.794,0,0,0,45.573,22.787Z" transform="translate(125 548)" fill="#8705be"/>
  </g>
</svg>
