<svg xmlns="http://www.w3.org/2000/svg" width="21.754" height="21.757" viewBox="0 0 21.754 21.757">
  <path id="home" d="M21.67,9.462l0,0L12.793.586a2,2,0,0,0-2.833,0L1.09,9.456l-.009.009a2,2,0,0,0,1.333,3.412c.021,0,.041,0,.062,0H2.83v6.531a2.347,2.347,0,0,0,2.344,2.344H8.646a.637.637,0,0,0,.637-.637V16a1.071,1.071,0,0,1,1.07-1.069H12.4A1.071,1.071,0,0,1,13.471,16v5.12a.637.637,0,0,0,.637.637H17.58a2.347,2.347,0,0,0,2.344-2.344V12.881h.328A2,2,0,0,0,21.67,9.462Zm-.9,1.93a.724.724,0,0,1-.515.213h-.965a.637.637,0,0,0-.637.637v7.168a1.071,1.071,0,0,1-1.069,1.069H14.745V16A2.347,2.347,0,0,0,12.4,13.654H10.353A2.347,2.347,0,0,0,8.009,16v4.483H5.174A1.071,1.071,0,0,1,4.1,19.412V12.243a.637.637,0,0,0-.637-.637H2.488a.727.727,0,0,1-.5-1.242h0l8.875-8.874a.728.728,0,0,1,1.029,0l8.873,8.872,0,0a.73.73,0,0,1,0,1.029Zm0,0" transform="translate(-0.5 0.001)" fill="#e4e4e4"/>
</svg>
