<svg xmlns="http://www.w3.org/2000/svg" width="20.287" height="26.571" viewBox="0 0 20.287 26.571">
  <g id="XMLID_1017_" transform="translate(-54)">
    <g id="XMLID_1278_" transform="translate(54 0)">
      <path id="XMLID_1279_" d="M224.5,46.554a.622.622,0,0,1,.661.572.5.5,0,1,0,1,0A1.62,1.62,0,0,0,225,45.591v-.072a.5.5,0,1,0-1,0v.072a1.62,1.62,0,0,0-1.163,1.535,1.64,1.64,0,0,0,1.666,1.61.578.578,0,1,1-.661.572.5.5,0,1,0-1,0,1.62,1.62,0,0,0,1.163,1.535v.072a.5.5,0,1,0,1,0v-.072a1.62,1.62,0,0,0,1.163-1.535A1.64,1.64,0,0,0,224.5,47.7a.578.578,0,1,1,0-1.145Z" transform="translate(-214.353 -42.665)" fill="#e4e4e4"/>
      <path id="XMLID_1303_" d="M73.785,14.232h-2.3A5.49,5.49,0,0,0,66.1,19.8v2.157l-1.453,1.5V11.082a5.493,5.493,0,0,0,4.871-5.529A5.716,5.716,0,0,0,69.245,3.8a.5.5,0,0,0-.635-.329.523.523,0,0,0-.319.656,4.646,4.646,0,0,1,.221,1.422,4.371,4.371,0,1,1-8.738,0,4.449,4.449,0,0,1,4.369-4.515,4.237,4.237,0,0,1,1.3.2A.5.5,0,0,0,66.072.9a.522.522,0,0,0-.33-.65,5.213,5.213,0,0,0-1.6-.25A5.471,5.471,0,0,0,58.77,5.553a5.493,5.493,0,0,0,4.871,5.529v7.906l-1.453-1.5V15.329A5.49,5.49,0,0,0,56.8,9.757H54.5a.511.511,0,0,0-.5.519v2.372a5.49,5.49,0,0,0,5.392,5.572h2.087l2.163,2.235v5.078h-5.03a.519.519,0,0,0,0,1.038H69.675a.519.519,0,0,0,0-1.038h-5.03v-.6l2.163-2.235H68.9a5.49,5.49,0,0,0,5.392-5.572V14.751A.511.511,0,0,0,73.785,14.232Zm-14.393,2.95A4.468,4.468,0,0,1,55,12.648V10.795H56.8a4.468,4.468,0,0,1,4.387,4.534v1.119l-2.218-2.292a.491.491,0,0,0-.71,0,.531.531,0,0,0,0,.734l2.218,2.292Zm13.891-.059A4.468,4.468,0,0,1,68.9,21.657H67.813l2.218-2.292a.531.531,0,0,0,0-.734.491.491,0,0,0-.71,0L67.1,20.923V19.8A4.468,4.468,0,0,1,71.49,15.27h1.793Z" transform="translate(-54 0)" fill="#e4e4e4"/>
      <path id="XMLID_1306_" d="M314.882,29.238a.5.5,0,0,0,.355-.152.531.531,0,0,0,0-.734.49.49,0,0,0-.71,0,.531.531,0,0,0,0,.734A.5.5,0,0,0,314.882,29.238Z" transform="translate(-301.305 -26.737)" fill="#e4e4e4"/>
    </g>
  </g>
</svg>
