<svg xmlns="http://www.w3.org/2000/svg" width="32.899" height="32.899" viewBox="0 0 32.899 32.899">
  <g id="Group_10" data-name="Group 10" transform="translate(0 0)">
    <g id="Group_9" data-name="Group 9" transform="translate(0 0)">
      <path id="Path_23" data-name="Path 23" d="M25.771,16.282A1.639,1.639,0,0,0,24.4,14.66l-1.815-.3.349-1.745h4.486V15.9h1.1V5.274L32.6,3.232a.548.548,0,0,0,0-.981L28.209.058a.548.548,0,0,0-.793.491V9.322H23.281a3.289,3.289,0,1,0-4.611.277l-4.724,4.2L10.88,15.331l-1.573-.262A3.289,3.289,0,1,0,5,15.112a.488.488,0,0,0-.025.043l-1.7,4.419A2.723,2.723,0,0,0,3.5,22.008a2.789,2.789,0,0,0,.3.387L2.306,24.883.161,27.028a.548.548,0,0,0,0,.775l1.645,1.645a.548.548,0,0,0,.775,0l2.742-2.742a.548.548,0,0,0,.069-.083L7.5,23.464l.728.066v2.241H7.676a.548.548,0,0,0-.548.548v3.95l-6.7,1.547A.548.548,0,0,0,0,32.351V32.9H1.1v-.112L7.8,31.24a.548.548,0,0,0,.425-.535V26.868h8.225a.547.547,0,0,0,.407-.181l4.771-5.3H32.9v-1.1H25.771ZM28.512,1.436l2.612,1.306L28.512,4.048Zm-9.87,5.693a2.193,2.193,0,1,1,2.193,2.193A2.2,2.2,0,0,1,18.643,7.128Zm-.773,4.65-.834,2.168-1.549,1.168-.51-.765Zm-12.935.833A2.193,2.193,0,1,1,7.128,14.8,2.2,2.2,0,0,1,4.935,12.612ZM4.509,25.97,2.193,28.286l-.87-.87L3.129,25.61a.544.544,0,0,0,.082-.105l1.472-2.454a2.759,2.759,0,0,0,.9.239l.672.061Zm6.457-.2H9.321V23.03a.548.548,0,0,0-.5-.546L5.682,22.2A1.644,1.644,0,0,1,4.3,19.969L5.86,15.9H7.631l3.245.541a.551.551,0,0,0,.335-.05l2.857-1.428.5.753-3.2,1.83h-2.6a.548.548,0,0,0-.532.416l-.548,2.193a.548.548,0,0,0,.442.673l2.374.4a.546.546,0,0,1,.458.541v4.006Zm10.966-5.483h-.548a.547.547,0,0,0-.407.181l-4.771,5.3H12.063V21.765a1.639,1.639,0,0,0-1.375-1.622l-1.788-.3.3-1.2h2.313a.55.55,0,0,0,.272-.072l3.838-2.193c.008,0,.013-.014.021-.019s.025-.011.037-.019l1.145-.864a2.745,2.745,0,0,0,.382,1.049,2.789,2.789,0,0,0,.3.387L16.014,19.4l-2.146,2.146a.548.548,0,0,0,0,.775l1.645,1.645a.548.548,0,0,0,.775,0l2.742-2.742a.548.548,0,0,0,.069-.083L21.2,17.981l.728.066Zm-3.541-2.72a2.759,2.759,0,0,0,.9.239l.672.061-1.746,2.619L15.9,22.8l-.87-.87,1.806-1.806a.545.545,0,0,0,.082-.105Zm6.283,2.72H23.029V17.546a.548.548,0,0,0-.5-.546l-3.141-.286A1.644,1.644,0,0,1,18,14.486l1.564-4.068h7.848v1.1H22.481a.548.548,0,0,0-.537.441L21.4,14.7a.548.548,0,0,0,.447.649l2.374.4a.545.545,0,0,1,.458.54Z" transform="translate(0 0)" fill="#fff"/>
    </g>
  </g>
</svg>
