<svg xmlns="http://www.w3.org/2000/svg" width="194.986" height="205.869" viewBox="0 0 194.986 205.869"><defs><style>.a{fill:#736357;}.b{fill:#66574d;}.c{fill:#8d0bc4;}.d{fill:#8705be;}.e{fill:#998675;}.f{fill:#8c7969;}</style></defs><g transform="translate(-90 -110)"><g transform="translate(76.467 110)"><path class="a" d="M235.851,456.309H214.014a9.974,9.974,0,0,1-9.974-9.974V418.857h41.785v27.478A9.974,9.974,0,0,1,235.851,456.309Z" transform="translate(-113.906 -250.439)"/><path class="b" d="M246.309,418.856v27.478a9.974,9.974,0,0,1-9.974,9.974H255.16a9.974,9.974,0,0,0,9.974-9.974V418.856Z" transform="translate(-133.216 -250.439)"/><path class="c" d="M177.032,98.093c-28.429.2-52.327,24.153-52.466,52.583a52.613,52.613,0,0,0,11.094,32.661A76.78,76.78,0,0,1,151.5,226.909a2.054,2.054,0,0,0,2.055,1.955h47.726a2.056,2.056,0,0,0,2.055-1.957A79.559,79.559,0,0,1,219.579,182.8a52.849,52.849,0,0,0-42.547-84.708Z" transform="translate(-66.388 -58.65)"/><path class="d" d="M216.244,98.093a50.892,50.892,0,0,0-8.316.747,52.855,52.855,0,0,1,33.26,83.96c-9.7,12.812-13.087,19.776-13.862,35.754a2.056,2.056,0,0,1-2.055,1.957H190.146q.407,3.18.561,6.4a2.054,2.054,0,0,0,2.055,1.955h47.726a2.056,2.056,0,0,0,2.055-1.957A79.557,79.557,0,0,1,258.791,182.8a52.849,52.849,0,0,0-42.547-84.708Z" transform="translate(-105.599 -58.65)"/><path class="e" d="M204.04,448.17h41.785V442.2H204.04Z" transform="translate(-113.906 -264.399)"/><rect class="f" width="18.825" height="5.966" transform="translate(113.093 177.803)"/><path class="e" d="M204.04,474.732h0v5.01c0,.322.017.641.047.955h41.692c.03-.314.047-.633.047-.955v-5.01Z" transform="translate(-113.906 -283.848)"/><path class="f" d="M261.072,479.743c0,.322-.017.641-.047.955H279.85q.022-.235.035-.473c.008-.16.012-.32.012-.482v-5.01H261.072Z" transform="translate(-147.978 -283.848)"/><g transform="translate(13.533)"><path class="d" d="M251.565,0a2.983,2.983,0,0,0-2.983,2.983V18.668a2.983,2.983,0,0,0,5.965,0V2.983A2.982,2.982,0,0,0,251.565,0Z" transform="translate(-154.072)"/><path class="d" d="M463.289,235.049H447.6a2.983,2.983,0,1,0,0,5.965h15.685a2.983,2.983,0,1,0,0-5.965Z" transform="translate(-271.286 -140.539)"/><path class="d" d="M32.2,235.049H16.516a2.983,2.983,0,1,0,0,5.965H32.2a2.983,2.983,0,1,0,0-5.965Z" transform="translate(-13.533 -140.539)"/><path class="d" d="M392.294,374.543a2.983,2.983,0,1,0-4.218,4.219l11.092,11.091a2.983,2.983,0,1,0,4.218-4.219Z" transform="translate(-236.954 -223.422)"/><path class="d" d="M87.468,69.718a2.983,2.983,0,0,0-4.218,4.219L94.341,85.028a2.983,2.983,0,0,0,4.219-4.219Z" transform="translate(-54.695 -41.163)"/><path class="d" d="M399.167,69.718,388.075,80.809a2.983,2.983,0,0,0,4.218,4.219l11.092-11.091a2.983,2.983,0,1,0-4.218-4.218Z" transform="translate(-236.954 -41.163)"/><path class="d" d="M94.341,374.543,83.25,385.634a2.983,2.983,0,0,0,4.219,4.219L98.56,378.762a2.983,2.983,0,0,0-4.219-4.219Z" transform="translate(-54.695 -223.422)"/></g></g></g></svg>