<svg xmlns="http://www.w3.org/2000/svg" width="34.59" height="34.59" viewBox="0 0 34.59 34.59">
  <g id="linkedin" transform="translate(0 0.001)">
    <circle id="Ellipse_34" data-name="Ellipse 34" cx="17.295" cy="17.295" r="17.295" transform="translate(0 -0.001)" fill="#007ab9"/>
    <g id="Group_116" data-name="Group 116" transform="translate(8.345 7.389)">
      <path id="Path_158" data-name="Path 158" d="M46.351,35.266V42.4H42.217V35.743c0-1.67-.6-2.811-2.094-2.811A2.261,2.261,0,0,0,38,34.444a2.829,2.829,0,0,0-.137,1.008V42.4H33.732s.055-11.267,0-12.433h4.135v1.762c-.008.014-.02.027-.027.041h.027v-.041a4.1,4.1,0,0,1,3.726-2.054c2.72,0,4.759,1.777,4.759,5.6Zm-16.944-11.3a2.154,2.154,0,1,0-.054,4.3h.027a2.155,2.155,0,1,0,.027-4.3ZM27.314,42.4h4.133V29.962H27.314Z" transform="translate(-27.068 -23.969)" fill="#f1f2f2"/>
    </g>
  </g>
</svg>
