<svg xmlns="http://www.w3.org/2000/svg" width="21.969" height="25.069" viewBox="0 0 21.969 25.069"><defs><style>.a{fill:#fff;}</style></defs><g transform="translate(-0.195 0)"><path class="a" d="M20.713,17.627A10.607,10.607,0,0,0,17.86,5.771l.575-.575.313.313a.443.443,0,0,0,.626-.626l-.626-.626h0l-.626-.626a.443.443,0,1,0-.626.626l.313.313-.638.638a10.571,10.571,0,0,0-5.9-2.1v-.9h1.107a1.107,1.107,0,1,0,0-2.215h-3.1a1.107,1.107,0,0,0,0,2.215h1.107v.9A10.579,10.579,0,0,0,3.986,5.6L2.955,4.57l.313-.313a.443.443,0,0,0-.626-.626l-.626.626h0l-.626.626a.443.443,0,0,0,.626.626L2.329,5.2l1,1a10.625,10.625,0,0,0,11.389,17.42,4.247,4.247,0,1,0,5.992-5.992ZM9.053,1.107A.222.222,0,0,1,9.275.886h3.1a.222.222,0,0,1,0,.443h-3.1A.222.222,0,0,1,9.053,1.107Zm1.772,22.367a9.768,9.768,0,1,1,9.137-6.38,4.22,4.22,0,0,0-1.437-.48A8.214,8.214,0,0,0,11.782,5.561,8.153,8.153,0,0,0,6.568,6.692a.443.443,0,0,0,.459.758,7.262,7.262,0,0,1,4.652-1.009,7.346,7.346,0,0,1,5.936,10.085.409.409,0,0,0-.011.055A4.253,4.253,0,0,0,13.676,20.5,7.341,7.341,0,0,1,3.535,12.877a.443.443,0,1,0-.88-.1,8.206,8.206,0,0,0,11.053,8.651,4.218,4.218,0,0,0,.481,1.443,9.688,9.688,0,0,1-3.364.607Zm7.087.709a3.366,3.366,0,1,1,3.366-3.366A3.37,3.37,0,0,1,17.912,24.183Zm0,0"/><path class="a" d="M100.922,189.5a.442.442,0,0,0,.3-.114l2.406-2.169a1.532,1.532,0,0,0,.757.206,1.55,1.55,0,1,0-1.55-1.55,1.53,1.53,0,0,0,.178.706l-2.384,2.149a.443.443,0,0,0,.3.772Zm3.459-4.292a.664.664,0,1,1-.665.665A.665.665,0,0,1,104.381,185.206Zm0,0" transform="translate(-93.778 -172.361)"/><path class="a" d="M53.756,128.41a.443.443,0,0,0,.606-.159,7.353,7.353,0,0,1,.786-1.1.443.443,0,0,0-.67-.579A8.21,8.21,0,0,0,53.6,127.8.443.443,0,0,0,53.756,128.41Zm0,0" transform="translate(-49.88 -118.216)"/><path class="a" d="M262.267,293.547h-2.215a.443.443,0,1,0,0,.886h2.215a.443.443,0,1,0,0-.886Zm0,0" transform="translate(-242.583 -274.502)"/><path class="a" d="M262.267,314.027h-2.215a.443.443,0,1,0,0,.886h2.215a.443.443,0,1,0,0-.886Zm0,0" transform="translate(-242.583 -293.653)"/><path class="a" d="M262.267,334.508h-2.215a.443.443,0,1,0,0,.886h2.215a.443.443,0,1,0,0-.886Zm0,0" transform="translate(-242.583 -312.805)"/><path class="a" d="M240.015,293.99a.443.443,0,1,1-.443-.443A.443.443,0,0,1,240.015,293.99Zm0,0" transform="translate(-223.432 -274.501)"/><path class="a" d="M240.015,314.471a.443.443,0,1,1-.443-.443A.443.443,0,0,1,240.015,314.471Zm0,0" transform="translate(-223.432 -293.654)"/><path class="a" d="M240.015,334.951a.443.443,0,1,1-.443-.443A.443.443,0,0,1,240.015,334.951Zm0,0" transform="translate(-223.432 -312.805)"/></g></svg>