<svg xmlns="http://www.w3.org/2000/svg" width="20.156" height="23.877" viewBox="0 0 20.156 23.877">
  <g id="timeline" transform="translate(285.999 -134.968)">
    <path id="Path_126" data-name="Path 126" d="M15.2,39.652a.6.6,0,0,0-.545-.353h0a.6.6,0,0,0-.545.346l-1.278,2.71-2.274-4.6V35.136h4.815a.6.6,0,0,0,.45-1l-1.671-1.875,1.671-1.875a.6.6,0,0,0-.45-1H9.955a.6.6,0,0,0-.6.6v7.775L7.195,42.118l-1.146-2.47A.6.6,0,0,0,5.5,39.3h0a.6.6,0,0,0-.547.353L.055,50.425a.6.6,0,0,0,.549.853H2.665l-.548,1.109a.6.6,0,0,0,.54.87h14.6a.6.6,0,0,0,.541-.87l-.548-1.109h2.308a.6.6,0,0,0,.549-.853Zm-4.647-9.068h3.47l-1.134,1.272a.6.6,0,0,0,0,.8l1.134,1.272h-3.47ZM1.54,50.071l3.967-8.725,1,2.159L3.261,50.071Zm2.087,1.979L9.955,39.258l6.327,12.792Zm13.021-1.979-3.134-6.337,1.131-2.4,3.972,8.735Zm0,0" transform="translate(-286 105.589)" fill="#be23ff"/>
  </g>
</svg>
