<svg xmlns="http://www.w3.org/2000/svg" width="182.874" height="188.447" viewBox="0 0 182.874 188.447"><defs><style>.a{fill:#8705be;}.b{fill:#353744;}.c{fill:gray;}.d{fill:#b3b4b6;}.e{fill:#dbdee3;}.f{fill:#8d0bc4;}.g{fill:#a41ade;}.h{fill:#85c3ff;}.i{fill:#55525b;}</style></defs><g transform="translate(-96 -110)"><g transform="translate(93.5 108.399)"><g transform="translate(126.483 128.057)"><path class="a" d="M42.5,42.4V57.9a3.1,3.1,0,1,0,6.2,0V51.7a3.1,3.1,0,1,1,6.2,0V70.3a3.1,3.1,0,0,0,6.2,0V51.7a3.1,3.1,0,1,1,6.2,0,3.1,3.1,0,0,0,6.2,0V42.4Z" transform="translate(-42.5 -42.399)"/></g><g transform="translate(123.383 121.858)"><path class="b" d="M75.6,46.6h-31a3.1,3.1,0,0,1-3.1-3.1V40.4H78.695v3.1A3.1,3.1,0,0,1,75.6,46.6Z" transform="translate(-41.5 -40.399)"/></g><g transform="translate(67.591 165.252)"><circle class="b" cx="12.398" cy="12.398" r="12.398"/></g><g transform="translate(30.396 28.872)"><path class="a" d="M110.686,59.991A49.593,49.593,0,1,0,28.74,97.546c8.468,7.29,13.756,17.587,13.756,28.761v1.875H79.69A41.848,41.848,0,0,1,94.069,97a49.414,49.414,0,0,0,16.617-37.012Z" transform="translate(-11.5 -10.399)"/></g><g transform="translate(61.392 146.654)"><path class="c" d="M58.695,48.4H21.5V73.2a6.2,6.2,0,0,0,6.2,6.2H52.5a6.2,6.2,0,0,0,6.2-6.2Z" transform="translate(-21.5 -48.399)"/></g><g transform="translate(61.392 146.654)"><path class="d" d="M40.1,48.4H21.5V73.2a6.2,6.2,0,0,0,6.2,6.2H40.1Z" transform="translate(-21.5 -48.399)"/></g><g transform="translate(61.392 165.252)"><path class="e" d="M21.5,54.4H40.1v6.2H21.5Z" transform="translate(-21.5 -54.399)"/></g><g transform="translate(61.392 152.853)"><path class="e" d="M21.5,50.4H40.1v6.2H21.5Z" transform="translate(-21.5 -50.399)"/></g><g transform="translate(79.989 165.252)"><path class="d" d="M27.5,54.4H46.1v6.2H27.5Z" transform="translate(-27.5 -54.399)"/></g><g transform="translate(79.989 152.853)"><path class="d" d="M27.5,50.4H46.1v6.2H27.5Z" transform="translate(-27.5 -50.399)"/></g><g transform="translate(32.64 31.121)"><path class="f" d="M45.055,11.125A50.319,50.319,0,0,0,12.224,43.934,24.785,24.785,0,1,0,45.055,11.125Z" transform="translate(-12.224 -11.125)"/></g><g transform="translate(2.5 98.614)"><g transform="translate(0 0)"><path class="g" d="M55.193,50.14h-.223a6.2,6.2,0,0,1-5.368-9.3l.112-.192a3.1,3.1,0,0,0-1.134-4.234l-5.368-3.1a3.068,3.068,0,0,0-1.547-.4V32.9h-6.2v.012a3.083,3.083,0,0,0-2.687,1.537l-.112.192A6.134,6.134,0,0,1,30.4,36.914a6.157,6.157,0,0,1-2.269-2.272l-.112-.192a3.083,3.083,0,0,0-2.687-1.537V32.9h-6.2v.012a3.06,3.06,0,0,0-1.547.4l-5.368,3.1a3.1,3.1,0,0,0-1.134,4.234l.112.192a6.2,6.2,0,0,1-5.368,9.3H5.6a3.1,3.1,0,0,0-3.1,3.1v6.2a3.1,3.1,0,0,0,3.1,3.1h.223a6.2,6.2,0,0,1,5.368,9.3l-.112.192a3.1,3.1,0,0,0,1.134,4.234l5.368,3.1a3.068,3.068,0,0,0,1.547.4v.012h6.2v-.012a3.083,3.083,0,0,0,2.687-1.537l.112-.192A6.111,6.111,0,0,1,30.4,75.764a6.157,6.157,0,0,1,2.269,2.272l.112.192a3.083,3.083,0,0,0,2.687,1.537v.012h6.2v-.012a3.06,3.06,0,0,0,1.547-.4l5.368-3.1a3.1,3.1,0,0,0,1.134-4.234l-.112-.192a6.2,6.2,0,0,1,5.368-9.3h.223a3.1,3.1,0,0,0,3.1-3.1v-6.2A3.1,3.1,0,0,0,55.193,50.14Zm-31,6.2a9.3,9.3,0,0,1,6.2-8.759,9.288,9.288,0,0,1,0,17.519A9.3,9.3,0,0,1,24.2,56.339Z" transform="translate(-2.5 -32.9)"/></g><path class="h" d="M48.993,50.14H48.77a6.2,6.2,0,0,1-5.368-9.3l.112-.192a3.1,3.1,0,0,0-1.134-4.234l-5.368-3.1a3.1,3.1,0,0,0-4.234,1.134l-.112.192a6.2,6.2,0,0,1-10.737,0l-.112-.192a3.1,3.1,0,0,0-4.234-1.134l-5.368,3.1a3.1,3.1,0,0,0-1.134,4.234l.112.192a6.2,6.2,0,0,1-5.368,9.3H5.6a3.1,3.1,0,0,0-3.1,3.1v6.2a3.1,3.1,0,0,0,3.1,3.1h.223a6.2,6.2,0,0,1,5.368,9.3l-.112.192a3.1,3.1,0,0,0,1.134,4.234l5.368,3.1a3.1,3.1,0,0,0,4.234-1.134l.112-.192a6.2,6.2,0,0,1,10.737,0l.112.192a3.1,3.1,0,0,0,4.234,1.134l5.368-3.1a3.1,3.1,0,0,0,1.134-4.234l-.112-.192a6.2,6.2,0,0,1,5.368-9.3h.223a3.1,3.1,0,0,0,3.1-3.1v-6.2A3.1,3.1,0,0,0,48.993,50.14Zm-21.7,15.5a9.3,9.3,0,1,1,9.3-9.3A9.3,9.3,0,0,1,27.3,65.638Z" transform="translate(-2.5 -32.9)"/></g><g transform="translate(117.184 1.601)"><path class="e" d="M59.455,3.925,58.519,5.1A86.776,86.776,0,0,0,39.5,59.315v56.344a6.2,6.2,0,0,0,6.2,6.2H82.894a6.2,6.2,0,0,0,6.2-6.2V59.315A86.776,86.776,0,0,0,70.074,5.1l-.939-1.172a6.2,6.2,0,0,0-9.68,0Z" transform="translate(-39.5 -1.601)"/></g><g transform="translate(141.977 1.601)"><path class="d" d="M53.28,5.1l-.939-1.172A6.171,6.171,0,0,0,47.5,1.6V121.858H66.1a6.2,6.2,0,0,0,6.2-6.2V59.312A86.753,86.753,0,0,0,53.28,5.1Z" transform="translate(-47.499 -1.601)"/></g><g transform="translate(125.348 1.602)"><path class="g" d="M64.544,5.1,63.6,3.928a6.2,6.2,0,0,0-9.683,0L52.989,5.1A86.724,86.724,0,0,0,42.134,22.674H75.4A86.639,86.639,0,0,0,64.544,5.1Z" transform="translate(-42.134 -1.601)"/></g><g transform="translate(123.383 28.871)"><path class="g" d="M18.6,0A18.6,18.6,0,1,1,0,18.6,18.6,18.6,0,0,1,18.6,0Z" transform="translate(0 0)"/></g><g transform="translate(141.98 28.871)"><path class="f" d="M66.1,29A18.6,18.6,0,0,0,47.5,10.4V47.594A18.6,18.6,0,0,0,66.1,29Z" transform="translate(-47.5 -10.399)"/></g><g transform="translate(129.582 35.07)"><circle class="b" cx="12.398" cy="12.398" r="12.398"/></g><g transform="translate(166.777 78.464)"><path class="f" d="M55.5,63.594,68.806,76.9A3.1,3.1,0,0,0,74.1,74.709V50.132a12.384,12.384,0,0,0-3.633-8.766L55.5,26.4Z" transform="translate(-55.5 -26.399)"/></g><g transform="translate(98.586 78.467)"><path class="g" d="M52.1,63.592,38.791,76.9A3.1,3.1,0,0,1,33.5,74.707V50.13a12.384,12.384,0,0,1,3.633-8.766L52.1,26.4Z" transform="translate(-33.5 -26.4)"/></g><g transform="translate(138.881 78.464)"><path class="f" d="M49.6,79.092a3.1,3.1,0,0,0,3.1-3.1V29.5a3.1,3.1,0,1,0-6.2,0V75.992A3.1,3.1,0,0,0,49.6,79.092Z" transform="translate(-46.5 -26.399)"/></g><g transform="translate(131.131 36.62)"><path class="i" d="M62.52,16.076,47.178,31.419A10.849,10.849,0,0,1,62.52,16.076Z" transform="translate(-44 -12.899)"/></g><g transform="translate(141.977 1.601)"><path class="f" d="M64.134,22.672A86.809,86.809,0,0,0,53.28,5.1l-.939-1.172A6.168,6.168,0,0,0,47.5,1.6V22.672Z" transform="translate(-47.499 -1.601)"/></g></g></g></svg>