<svg id="lock" xmlns="http://www.w3.org/2000/svg" width="16.198" height="22.216" viewBox="0 0 16.198 22.216">
  <path id="Path_44" data-name="Path 44" d="M40.79,20.006H39.721V17.643a5.247,5.247,0,1,0-10.493,0v2.363H28.158a1.785,1.785,0,0,0-1.783,1.783v11.04a1.785,1.785,0,0,0,1.783,1.783H40.79a1.785,1.785,0,0,0,1.783-1.783V21.789A1.785,1.785,0,0,0,40.79,20.006ZM29.98,17.643a4.493,4.493,0,1,1,8.987,0v2.363h-.753V17.643a3.74,3.74,0,0,0-7.48,0v2.363H29.98Zm1.507,2.363V17.643a2.987,2.987,0,0,1,5.973,0v2.363ZM41.819,32.829a1.031,1.031,0,0,1-1.029,1.03H28.158a1.031,1.031,0,0,1-1.029-1.03V21.789a1.031,1.031,0,0,1,1.029-1.029H40.79a1.031,1.031,0,0,1,1.029,1.029Z" transform="translate(-26.375 -12.396)" fill="#8705be"/>
  <path id="Path_45" data-name="Path 45" d="M56.89,65.969a2.385,2.385,0,1,0-3.165,3.568.6.6,0,0,1,.22.451V71.35a1.354,1.354,0,1,0,2.709,0V70a.632.632,0,0,1,.224-.468,2.384,2.384,0,0,0,.012-3.565Zm-.511,3A1.384,1.384,0,0,0,55.9,70v1.349a.6.6,0,1,1-1.2,0V69.989a1.363,1.363,0,0,0-.475-1.017,1.621,1.621,0,0,1-.548-1.383,1.651,1.651,0,0,1,1.437-1.465,1.757,1.757,0,0,1,.189-.011,1.614,1.614,0,0,1,1.087.416,1.632,1.632,0,0,1-.008,2.439Z" transform="translate(-47.2 -53.96)" fill="#8705be"/>
</svg>
