<svg xmlns="http://www.w3.org/2000/svg" width="33.037" height="33" viewBox="0 0 33.037 33">
  <g id="telegram" transform="translate(-0.326 0.493)">
    <circle id="Ellipse_33" data-name="Ellipse 33" cx="16.5" cy="16.5" r="16.5" transform="translate(0.326 -0.493)" fill="#41b4e6"/>
    <path id="Path_149" data-name="Path 149" d="M133.177,139.482c0-.406-.015-.809-.044-1.208l-6.914-6.913-19.448,7.65,7.441,7.441.1.351.126-.127h0l-.127.127,8.231,8.231A16.686,16.686,0,0,0,133.177,139.482Z" transform="translate(-99.815 -123.194)" fill="#0091c8"/>
    <path id="Path_150" data-name="Path 150" d="M114.875,141.912l7.539,5.692,3.805-16.244-19.448,7.65,5.918,1.96,10.8-7.244Z" transform="translate(-99.814 -123.194)" fill="#fff"/>
    <path id="Path_151" data-name="Path 151" d="M197.588,174.908l1.621,5.832.565-4.89,8.614-8.187Z" transform="translate(-184.713 -157.133)" fill="#d2d2d7"/>
    <path id="Path_152" data-name="Path 152" d="M225.476,295.15l-3.015,3.04.565-4.89Z" transform="translate(-207.965 -274.582)" fill="#b9b9be"/>
  </g>
</svg>
