<svg xmlns="http://www.w3.org/2000/svg" width="33.619" height="33.765" viewBox="0 0 33.619 33.765">
  <g id="whatsapp" transform="translate(0 0.001)">
    <path id="Path_153" data-name="Path 153" d="M.719,33.765a.718.718,0,0,1-.693-.908l2.2-8.016a16.743,16.743,0,1,1,14.656,8.646H16.87a16.776,16.776,0,0,1-7.747-1.9L.9,33.741a.722.722,0,0,1-.182.023Zm0,0" transform="translate(0)" fill="#e5e5e5"/>
    <path id="Path_154" data-name="Path 154" d="M10.894,43.223l2.273-8.3a16.024,16.024,0,1,1,13.885,8.023h-.007A16.01,16.01,0,0,1,19.389,41ZM19.782,38.1l.487.288a13.3,13.3,0,0,0,6.779,1.856h.005A13.317,13.317,0,1,0,15.771,34l.317.5-1.346,4.913Zm0,0" transform="translate(-10.176 -10.177)" fill="#fff"/>
    <path id="Path_155" data-name="Path 155" d="M19.344,50.592l2.195-8.014a15.469,15.469,0,1,1,13.4,7.746h-.007a15.466,15.466,0,0,1-7.392-1.882Zm0,0" transform="translate(-18.068 -18.105)" fill="#64b161"/>
    <g id="Group_115" data-name="Group 115" transform="translate(0.719 0.718)">
      <path id="Path_156" data-name="Path 156" d="M10.894,43.223l2.273-8.3a16.024,16.024,0,1,1,13.885,8.023h-.007A16.01,16.01,0,0,1,19.389,41ZM19.782,38.1l.487.288a13.3,13.3,0,0,0,6.779,1.856h.005A13.317,13.317,0,1,0,15.771,34l.317.5-1.346,4.913Zm0,0" transform="translate(-10.894 -10.895)" fill="#fff"/>
      <path id="Path_157" data-name="Path 157" d="M136.583,142.314c-.3-.667-.616-.68-.9-.692-.233-.01-.5-.01-.767-.01a1.471,1.471,0,0,0-1.068.5,4.488,4.488,0,0,0-1.4,3.339,7.788,7.788,0,0,0,1.635,4.141c.2.267,2.77,4.439,6.839,6.044,3.382,1.334,4.07,1.069,4.8,1a4.043,4.043,0,0,0,2.7-1.9,3.344,3.344,0,0,0,.234-1.9c-.1-.167-.367-.267-.767-.467s-2.369-1.169-2.736-1.3-.634-.2-.9.2-1.034,1.3-1.267,1.569-.467.3-.868.1a10.948,10.948,0,0,1-3.22-1.987,12.064,12.064,0,0,1-2.228-2.773c-.233-.4,0-.6.176-.817a12.074,12.074,0,0,0,1-1.369.738.738,0,0,0-.033-.7C137.717,145.086,136.939,143.106,136.583,142.314Zm0,0" transform="translate(-124.43 -132.993)" fill="#fff" fill-rule="evenodd"/>
    </g>
  </g>
</svg>
