<svg xmlns="http://www.w3.org/2000/svg" width="170.484" height="206" viewBox="0 0 170.484 206"><defs><style>.a{fill:#8d0bc4;}.b{fill:#8705be;}.c{fill:#fff;}.d{fill:#694b4b;}.e{fill:#5a4146;}.f{fill:#785550;}.g{fill:#e6af78;}.h{fill:#d29b6e;}.i{fill:#f5f5f5;}.j{fill:#3e3e3e;}.k{fill:#f0c087;}.l{fill:#f6f6f6;}</style></defs><g transform="translate(-122 -110)"><g transform="translate(77.864 110)"><path class="a" d="M256.31,106.552a53.276,53.276,0,1,1,53.276-53.276A53.337,53.337,0,0,1,256.31,106.552Z" transform="translate(-94.966)"/><path class="b" d="M281.172,93.085a53.187,53.187,0,0,1-42.023-85.9A53.24,53.24,0,1,0,298.333,90.2,52.943,52.943,0,0,1,281.172,93.085Z" transform="translate(-94.966 -4.292)"/><path class="c" d="M327.845,70.621H310.087a3.552,3.552,0,0,0,0,7.1h9.185L301.207,95.788l-8.144-8.144a3.55,3.55,0,0,0-5.022,0L270.282,105.4a3.551,3.551,0,1,0,5.022,5.022l15.248-15.247,8.144,8.144a3.551,3.551,0,0,0,5.022,0l20.575-20.575v9.185a3.552,3.552,0,1,0,7.1,0V74.172A3.551,3.551,0,0,0,327.845,70.621Z" transform="translate(-134.536 -42.207)"/><path class="d" d="M119.858,114.759c-56.218,0-49.984,68.365-49.728,117.906a5.29,5.29,0,0,0,2.592,4.524,94.886,94.886,0,0,0,94.271,0,5.291,5.291,0,0,0,2.592-4.524C169.842,183.124,176.075,114.759,119.858,114.759Z" transform="translate(-15.341 -68.586)"/><path class="e" d="M116.241,115.108c-52.285,2.931-46.356,69.326-46.105,117.766a5.29,5.29,0,0,0,2.592,4.524,93.181,93.181,0,0,0,47.135,12.535l14.207-99.448" transform="translate(-15.347 -68.795)"/><path class="d" d="M143.427,114.759c-31.965,0-34.186,38.625-34.186,38.625,18.425-3.108,29.746,4.662,48.392-3.108l-14.207,99.448a93.181,93.181,0,0,0,47.135-12.535,5.291,5.291,0,0,0,2.592-4.524C193.411,183.124,199.644,114.759,143.427,114.759Z" transform="translate(-38.91 -68.586)"/><path class="f" d="M272.84,238.4c.22-42.57,4.816-99-29.554-114.047-.6,3.115-1.685,11.808,1.137,17.451,7.1,14.207,14.207,14.207,21.311,24.862,7.1,39.069-13.573,80.536-20.44,86.181h0a89.345,89.345,0,0,0,24.955-9.923A5.292,5.292,0,0,0,272.84,238.4Z" transform="translate(-118.596 -74.319)"/><path class="g" d="M158.338,392.483l-31.693-13.205a7.1,7.1,0,0,1-4.371-6.557v-8.583H86.757v8.583a7.1,7.1,0,0,1-4.371,6.557L50.693,392.484a10.654,10.654,0,0,0-6.557,9.835v14.207a7.1,7.1,0,0,0,7.1,7.1H157.791a7.1,7.1,0,0,0,7.1-7.1V402.319A10.653,10.653,0,0,0,158.338,392.483Z" transform="translate(0 -217.629)"/><path class="c" d="M158.34,415.624,127.7,402.856l-23.18,10-23.18-10L50.695,415.624a10.655,10.655,0,0,0-6.557,9.836v14.207a7.1,7.1,0,0,0,7.1,7.1H157.793a7.1,7.1,0,0,0,7.1-7.1V425.459A10.655,10.655,0,0,0,158.34,415.624Z" transform="translate(-0.001 -240.769)"/><path class="h" d="M171.74,364.138H136.223v8.583a7.1,7.1,0,0,1-4.371,6.557l-4.95,2.063C164.78,391,171.74,364.138,171.74,364.138Z" transform="translate(-49.466 -217.629)"/><g transform="translate(44.137 156.276)"><path class="i" d="M61.45,451.894l-14.256-11.34a10.631,10.631,0,0,0-3.055,7.436V462.2a7.1,7.1,0,0,0,7.1,7.1H65.448v-9.086A10.655,10.655,0,0,0,61.45,451.894Z" transform="translate(-44.138 -419.575)"/><path class="i" d="M312.621,462.263V448.056a10.631,10.631,0,0,0-3.009-7.391l-14.3,11.3a10.655,10.655,0,0,0-4,8.32v9.085h14.207A7.1,7.1,0,0,0,312.621,462.263Z" transform="translate(-191.862 -419.642)"/><path class="i" d="M188.931,454.538h0a3.552,3.552,0,0,1-3.552-3.552V427.74h7.1v23.247A3.552,3.552,0,0,1,188.931,454.538Z" transform="translate(-128.552 -411.917)"/><path class="j" d="M152,404.228l-20.328-15.246a2.842,2.842,0,0,0-4.069.7l-4.017,6.025,12.463,17.448a2.841,2.841,0,0,0,4.087.567Z" transform="translate(-91.621 -388.413)"/><path class="j" d="M194.207,404.228l20.328-15.246a2.842,2.842,0,0,1,4.069.7l4.017,6.025-12.463,17.448a2.841,2.841,0,0,1-4.087.567Z" transform="translate(-133.828 -388.413)"/></g><path class="k" d="M160.2,194.207c-17.759,17.759-52.61,3.552-52.61,31.965l2.206,20.93a14.207,14.207,0,0,0,7.249,11.133l20.222,11.235a10.654,10.654,0,0,0,10.349,0l20.222-11.235a14.207,14.207,0,0,0,7.249-11.133l2.546-24.858a39.177,39.177,0,0,0,.16-5.317C176.46,207.886,163.748,201.31,160.2,194.207Z" transform="translate(-37.921 -116.069)"/><path class="g" d="M107.586,226.172l2.206,20.93a14.207,14.207,0,0,0,7.249,11.133l20.222,11.235a10.611,10.611,0,0,0,7.232,1.081h0s-10.2-3.09-16.264-19.517c-1.859-5.033-4.439-31.669-2.22-34.925,4.388-6.435,28.858-7.1,36.088-19.042q-.536-.664-.988-1.332c-.025-.036-.054-.072-.078-.108a13.434,13.434,0,0,1-.837-1.421C142.437,211.966,107.586,197.759,107.586,226.172Z" transform="translate(-37.921 -116.069)"/><path class="l" d="M238.449,494.345H224.242a3.552,3.552,0,0,0-3.552,3.552v3.551H242V497.9A3.552,3.552,0,0,0,238.449,494.345Z" transform="translate(-105.519 -295.448)"/></g></g></svg>